<?xml version="1.0" encoding="UTF-8"?>
<svg xmlns="http://www.w3.org/2000/svg" xmlns:xlink="http://www.w3.org/1999/xlink" width="19pt" height="19pt" viewBox="0 0 19 19" version="1.1">
<g id="surface1">
<path style=" stroke:none;fill-rule:nonzero;fill:rgb(0%,0%,0%);fill-opacity:1;" d="M 11.929688 1.582031 L 7.070312 1.582031 C 2.636719 1.582031 1.582031 2.636719 1.582031 7.070312 L 1.582031 11.929688 C 1.582031 16.363281 2.636719 17.417969 7.070312 17.417969 L 11.929688 17.417969 C 16.363281 17.417969 17.417969 16.363281 17.417969 11.929688 L 17.417969 7.070312 C 17.417969 2.636719 16.363281 1.582031 11.929688 1.582031 M 14.367188 12.878906 L 13.214844 12.878906 C 12.777344 12.878906 12.644531 12.523438 11.875 11.742188 C 11.179688 11.082031 10.878906 10.988281 10.710938 10.988281 C 10.480469 10.988281 10.410156 11.050781 10.410156 11.382812 L 10.410156 12.421875 C 10.410156 12.699219 10.324219 12.871094 9.585938 12.871094 C 8.367188 12.871094 7.015625 12.128906 6.0625 10.757812 C 4.632812 8.746094 4.242188 7.226562 4.242188 6.925781 C 4.242188 6.761719 4.296875 6.601562 4.632812 6.601562 L 5.796875 6.601562 C 6.089844 6.601562 6.199219 6.730469 6.308594 7.046875 C 6.878906 8.707031 7.828125 10.132812 8.21875 10.132812 C 8.367188 10.132812 8.429688 10.0625 8.429688 9.699219 L 8.429688 7.996094 C 8.390625 7.21875 7.972656 7.148438 7.972656 6.871094 C 7.972656 6.730469 8.082031 6.601562 8.265625 6.601562 L 10.078125 6.601562 C 10.324219 6.601562 10.410156 6.730469 10.410156 7.03125 L 10.410156 9.316406 C 10.410156 9.5625 10.511719 9.652344 10.59375 9.652344 C 10.734375 9.652344 10.863281 9.5625 11.121094 9.292969 C 11.953125 8.367188 12.546875 6.933594 12.546875 6.933594 C 12.628906 6.769531 12.753906 6.609375 13.0625 6.609375 L 14.195312 6.609375 C 14.542969 6.609375 14.621094 6.792969 14.542969 7.039062 C 14.402344 7.710938 12.992188 9.699219 13.007812 9.699219 C 12.878906 9.894531 12.832031 9.984375 13.007812 10.210938 C 13.125 10.378906 13.53125 10.726562 13.796875 11.035156 C 14.289062 11.597656 14.667969 12.066406 14.773438 12.390625 C 14.859375 12.714844 14.703125 12.878906 14.367188 12.878906 Z M 14.367188 12.878906 "/>
</g>
</svg>
